<svg xmlns="http://www.w3.org/2000/svg" viewBox="0 0 1345 1646" class="regional-map" data-region="shonan" role="img" aria-labelledby="map-title map-desc">
<title id="map-title">湘南・鎌倉 路線図</title><desc id="map-desc">25地域駅と4境界駅。破線の駅丸は隣接地域。駅丸のない交差では乗換できません。</desc>
<style>.regional-map{font-family:"Noto Sans CJK JP","Yu Gothic",system-ui,sans-serif}.regional-map .map-label{fill:#19362e;paint-order:stroke;stroke:#fbfaf5;stroke-width:5;stroke-linejoin:round;font-weight:600;font-size:14px}.regional-map .major-label{font-size:18px;font-weight:800}.regional-map .boundary-label{fill:#546c66}.regional-map .station{fill:#fbfaf5;stroke:#385d50;stroke-width:2}.regional-map .hub{stroke-width:3}.regional-map .boundary{stroke-dasharray:3 2}.regional-map.labels-major-only .minor-label{display:none}.regional-map .leader{stroke:#899a92;stroke-width:1;fill:none}.regional-map.labels-major-only .minor-leader{display:none}.regional-map .track{fill:none;stroke-width:4.5;stroke-linecap:round;stroke-linejoin:round}.regional-map .small{font-size:12px;fill:#60796f}</style>
<rect width="1345" height="1646" fill="#fbfaf5"/><text x="45" y="52" fill="#19362e" font-size="28" font-weight="800">湘南・鎌倉</text><text x="46" y="79" class="small">25 STATIONS · 4 CONNECTIONS　／　PDF 2023.03</text><path d="M1280 81 V40 l-5 10 m5-10 5 10" stroke="#60796f" fill="none"/><text x="1276" y="30" class="small">N</text>
<path class="track" d="M 1135 789.5 L 1085 789.5" stroke="#fbfaf5" style="stroke-width:8"/><path class="track" data-edge="[&quot;根岸&quot;,&quot;磯子&quot;,&quot;JK&quot;]" d="M 1135 789.5 L 1085 789.5" stroke="#00a7c4"/>
<path class="track" d="M 1085 789.5 L 1015 789.5" stroke="#fbfaf5" style="stroke-width:8"/><path class="track" data-edge="[&quot;磯子&quot;,&quot;新杉田&quot;,&quot;JK&quot;]" d="M 1085 789.5 L 1015 789.5" stroke="#00a7c4"/>
<path class="track" d="M 1015 789.5 L 945 789.5" stroke="#fbfaf5" style="stroke-width:8"/><path class="track" data-edge="[&quot;新杉田&quot;,&quot;洋光台&quot;,&quot;JK&quot;]" d="M 1015 789.5 L 945 789.5" stroke="#00a7c4"/>
<path class="track" d="M 945 789.5 L 875 789.5" stroke="#fbfaf5" style="stroke-width:8"/><path class="track" data-edge="[&quot;洋光台&quot;,&quot;港南台&quot;,&quot;JK&quot;]" d="M 945 789.5 L 875 789.5" stroke="#00a7c4"/>
<path class="track" d="M 875 789.5 L 805 789.5" stroke="#fbfaf5" style="stroke-width:8"/><path class="track" data-edge="[&quot;港南台&quot;,&quot;本郷台&quot;,&quot;JK&quot;]" d="M 875 789.5 L 805 789.5" stroke="#00a7c4"/>
<path class="track" d="M 805 789.5 L 735 789.5" stroke="#fbfaf5" style="stroke-width:8"/><path class="track" data-edge="[&quot;本郷台&quot;,&quot;大船&quot;,&quot;JK&quot;]" d="M 805 789.5 L 735 789.5" stroke="#00a7c4"/>
<path class="track" d="M 835 684.5 L 832.5 698.7 L 749.1 786.3 L 735 789.5" stroke="#fbfaf5" style="stroke-width:8"/><path class="track" data-edge="[&quot;戸塚&quot;,&quot;大船&quot;,&quot;JT&quot;]" d="M 835 684.5 L 832.5 698.7 L 749.1 786.3 L 735 789.5" stroke="#f68b1e"/>
<path class="track" d="M 735 789.5 L 723 797.5 L 572 797.5 L 560 789.5" stroke="#fbfaf5" style="stroke-width:8"/><path class="track" data-edge="[&quot;大船&quot;,&quot;藤沢&quot;,&quot;JT&quot;]" d="M 735 789.5 L 723 797.5 L 572 797.5 L 560 789.5" stroke="#f68b1e"/>
<path class="track" d="M 560 789.5 L 548 797.5 L 459.5 797.5 L 447.5 789.5" stroke="#fbfaf5" style="stroke-width:8"/><path class="track" data-edge="[&quot;藤沢&quot;,&quot;辻堂&quot;,&quot;JT&quot;]" d="M 560 789.5 L 548 797.5 L 459.5 797.5 L 447.5 789.5" stroke="#f68b1e"/>
<path class="track" d="M 447.5 789.5 L 435.5 797.5 L 347 797.5 L 335 789.5" stroke="#fbfaf5" style="stroke-width:8"/><path class="track" data-edge="[&quot;辻堂&quot;,&quot;茅ケ崎&quot;,&quot;JT&quot;]" d="M 447.5 789.5 L 435.5 797.5 L 347 797.5 L 335 789.5" stroke="#f68b1e"/>
<path class="track" d="M 335 789.5 L 323 797.5 L 172 797.5 L 160 789.5" stroke="#fbfaf5" style="stroke-width:8"/><path class="track" data-edge="[&quot;茅ケ崎&quot;,&quot;平塚&quot;,&quot;JT&quot;]" d="M 335 789.5 L 323 797.5 L 172 797.5 L 160 789.5" stroke="#f68b1e"/>
<path class="track" d="M 835 684.5 L 735 789.5" stroke="#fbfaf5" style="stroke-width:8"/><path class="track" data-edge="[&quot;戸塚&quot;,&quot;大船&quot;,&quot;JO&quot;]" d="M 835 684.5 L 735 789.5" stroke="#0067c0"/>
<path class="track" d="M 735 789.5 L 785 867" stroke="#fbfaf5" style="stroke-width:8"/><path class="track" data-edge="[&quot;大船&quot;,&quot;北鎌倉&quot;,&quot;JO&quot;]" d="M 735 789.5 L 785 867" stroke="#0067c0"/>
<path class="track" d="M 785 867 L 835 944.5" stroke="#fbfaf5" style="stroke-width:8"/><path class="track" data-edge="[&quot;北鎌倉&quot;,&quot;鎌倉&quot;,&quot;JO&quot;]" d="M 785 867 L 835 944.5" stroke="#0067c0"/>
<path class="track" d="M 835 944.5 L 935 1044.5" stroke="#fbfaf5" style="stroke-width:8"/><path class="track" data-edge="[&quot;鎌倉&quot;,&quot;逗子&quot;,&quot;JO&quot;]" d="M 835 944.5 L 935 1044.5" stroke="#0067c0"/>
<path class="track" d="M 935 1044.5 L 985 1099.5" stroke="#fbfaf5" style="stroke-width:8"/><path class="track" data-edge="[&quot;逗子&quot;,&quot;東逗子&quot;,&quot;JO&quot;]" d="M 935 1044.5 L 985 1099.5" stroke="#0067c0"/>
<path class="track" d="M 985 1099.5 L 1035 1154.5" stroke="#fbfaf5" style="stroke-width:8"/><path class="track" data-edge="[&quot;東逗子&quot;,&quot;田浦&quot;,&quot;JO&quot;]" d="M 985 1099.5 L 1035 1154.5" stroke="#0067c0"/>
<path class="track" d="M 1035 1154.5 L 1085 1209.5" stroke="#fbfaf5" style="stroke-width:8"/><path class="track" data-edge="[&quot;田浦&quot;,&quot;横須賀&quot;,&quot;JO&quot;]" d="M 1035 1154.5 L 1085 1209.5" stroke="#0067c0"/>
<path class="track" d="M 1085 1209.5 L 1135 1264.5" stroke="#fbfaf5" style="stroke-width:8"/><path class="track" data-edge="[&quot;横須賀&quot;,&quot;衣笠&quot;,&quot;JO&quot;]" d="M 1085 1209.5 L 1135 1264.5" stroke="#0067c0"/>
<path class="track" d="M 1135 1264.5 L 1185 1319.5" stroke="#fbfaf5" style="stroke-width:8"/><path class="track" data-edge="[&quot;衣笠&quot;,&quot;久里浜&quot;,&quot;JO&quot;]" d="M 1135 1264.5 L 1185 1319.5" stroke="#0067c0"/>
<path class="track" d="M 335 789.5 L 320.5 720.5" stroke="#fbfaf5" style="stroke-width:8"/><path class="track" data-edge="[&quot;茅ケ崎&quot;,&quot;北茅ケ崎&quot;,&quot;SG&quot;]" d="M 335 789.5 L 320.5 720.5" stroke="#009793"/>
<path class="track" d="M 320.5 720.5 L 305.5 652" stroke="#fbfaf5" style="stroke-width:8"/><path class="track" data-edge="[&quot;北茅ケ崎&quot;,&quot;香川&quot;,&quot;SG&quot;]" d="M 320.5 720.5 L 305.5 652" stroke="#009793"/>
<path class="track" d="M 305.5 652 L 291 583" stroke="#fbfaf5" style="stroke-width:8"/><path class="track" data-edge="[&quot;香川&quot;,&quot;寒川&quot;,&quot;SG&quot;]" d="M 305.5 652 L 291 583" stroke="#009793"/>
<path class="track" d="M 291 583 L 276 514" stroke="#fbfaf5" style="stroke-width:8"/><path class="track" data-edge="[&quot;寒川&quot;,&quot;宮山&quot;,&quot;SG&quot;]" d="M 291 583 L 276 514" stroke="#009793"/>
<path class="track" d="M 276 514 L 261.5 445.5" stroke="#fbfaf5" style="stroke-width:8"/><path class="track" data-edge="[&quot;宮山&quot;,&quot;倉見&quot;,&quot;SG&quot;]" d="M 276 514 L 261.5 445.5" stroke="#009793"/>
<path class="track" d="M 261.5 445.5 L 247 376.5" stroke="#fbfaf5" style="stroke-width:8"/><path class="track" data-edge="[&quot;倉見&quot;,&quot;門沢橋&quot;,&quot;SG&quot;]" d="M 261.5 445.5 L 247 376.5" stroke="#009793"/>
<path class="track" d="M 247 376.5 L 232 307.5" stroke="#fbfaf5" style="stroke-width:8"/><path class="track" data-edge="[&quot;門沢橋&quot;,&quot;社家&quot;,&quot;SG&quot;]" d="M 247 376.5 L 232 307.5" stroke="#009793"/>
<path class="track" d="M 232 307.5 L 217.5 239" stroke="#fbfaf5" style="stroke-width:8"/><path class="track" data-edge="[&quot;社家&quot;,&quot;厚木&quot;,&quot;SG&quot;]" d="M 232 307.5 L 217.5 239" stroke="#009793"/>
<path class="track" d="M 217.5 239 L 202.5 170" stroke="#fbfaf5" style="stroke-width:8"/><path class="track" data-edge="[&quot;厚木&quot;,&quot;海老名&quot;,&quot;SG&quot;]" d="M 217.5 239 L 202.5 170" stroke="#009793"/>
<circle class="station" data-station="衣笠" cx="1135" cy="1264.5" r="6" aria-label="衣笠"><title>衣笠</title></circle>
<circle class="station" data-station="磯子" cx="1085" cy="789.5" r="6" aria-label="磯子"><title>磯子</title></circle>
<circle class="station" data-station="横須賀" cx="1085" cy="1209.5" r="6" aria-label="横須賀"><title>横須賀</title></circle>
<circle class="station hub" data-station="鎌倉" cx="835" cy="944.5" r="8" aria-label="鎌倉"><title>鎌倉</title></circle>
<circle class="station hub" data-station="茅ケ崎" cx="335" cy="789.5" r="8" aria-label="茅ケ崎"><title>茅ケ崎</title></circle>
<circle class="station" data-station="寒川" cx="291" cy="583" r="6" aria-label="寒川"><title>寒川</title></circle>
<circle class="station hub" data-station="久里浜" cx="1185" cy="1319.5" r="8" aria-label="久里浜"><title>久里浜</title></circle>
<circle class="station" data-station="宮山" cx="276" cy="514" r="6" aria-label="宮山"><title>宮山</title></circle>
<circle class="station" data-station="厚木" cx="217.5" cy="239" r="6" aria-label="厚木"><title>厚木</title></circle>
<circle class="station" data-station="港南台" cx="875" cy="789.5" r="6" aria-label="港南台"><title>港南台</title></circle>
<circle class="station" data-station="香川" cx="305.5" cy="652" r="6" aria-label="香川"><title>香川</title></circle>
<circle class="station" data-station="社家" cx="232" cy="307.5" r="6" aria-label="社家"><title>社家</title></circle>
<circle class="station" data-station="新杉田" cx="1015" cy="789.5" r="6" aria-label="新杉田"><title>新杉田</title></circle>
<circle class="station hub" data-station="逗子" cx="935" cy="1044.5" r="8" aria-label="逗子"><title>逗子</title></circle>
<circle class="station" data-station="倉見" cx="261.5" cy="445.5" r="6" aria-label="倉見"><title>倉見</title></circle>
<circle class="station hub" data-station="大船" cx="735" cy="789.5" r="8" aria-label="大船"><title>大船</title></circle>
<circle class="station" data-station="辻堂" cx="447.5" cy="789.5" r="6" aria-label="辻堂"><title>辻堂</title></circle>
<circle class="station" data-station="田浦" cx="1035" cy="1154.5" r="6" aria-label="田浦"><title>田浦</title></circle>
<circle class="station" data-station="東逗子" cx="985" cy="1099.5" r="6" aria-label="東逗子"><title>東逗子</title></circle>
<circle class="station hub" data-station="藤沢" cx="560" cy="789.5" r="8" aria-label="藤沢"><title>藤沢</title></circle>
<circle class="station" data-station="北鎌倉" cx="785" cy="867" r="6" aria-label="北鎌倉"><title>北鎌倉</title></circle>
<circle class="station" data-station="北茅ケ崎" cx="320.5" cy="720.5" r="6" aria-label="北茅ケ崎"><title>北茅ケ崎</title></circle>
<circle class="station" data-station="本郷台" cx="805" cy="789.5" r="6" aria-label="本郷台"><title>本郷台</title></circle>
<circle class="station" data-station="門沢橋" cx="247" cy="376.5" r="6" aria-label="門沢橋"><title>門沢橋</title></circle>
<circle class="station" data-station="洋光台" cx="945" cy="789.5" r="6" aria-label="洋光台"><title>洋光台</title></circle>
<circle class="station boundary" data-station="海老名" cx="202.5" cy="170" r="6" aria-label="海老名"><title>海老名</title></circle>
<circle class="station boundary" data-station="戸塚" cx="835" cy="684.5" r="6" aria-label="戸塚"><title>戸塚</title></circle>
<circle class="station boundary" data-station="根岸" cx="1135" cy="789.5" r="6" aria-label="根岸"><title>根岸</title></circle>
<circle class="station boundary" data-station="平塚" cx="160" cy="789.5" r="6" aria-label="平塚"><title>平塚</title></circle>
<text class="map-label major-label" data-label="茅ケ崎" x="350" y="794.5" text-anchor="start">茅ケ崎</text>
<text class="map-label major-label" data-label="大船" x="750" y="794.5" text-anchor="start">大船</text>
<text class="map-label major-label" data-label="藤沢" x="575" y="794.5" text-anchor="start">藤沢</text>
<text class="map-label major-label" data-label="鎌倉" x="850" y="949.5" text-anchor="start">鎌倉</text>
<text class="map-label major-label" data-label="逗子" x="950" y="1049.5" text-anchor="start">逗子</text>
<text class="map-label major-label" data-label="久里浜" x="1200" y="1324.5" text-anchor="start">久里浜</text>
<text class="map-label minor-label boundary-label" data-label="海老名" x="217.5" y="175" text-anchor="start">海老名</text>
<text class="map-label minor-label" data-label="厚木" x="232.5" y="244" text-anchor="start">厚木</text>
<text class="map-label minor-label" data-label="社家" x="247" y="312.5" text-anchor="start">社家</text>
<text class="map-label minor-label" data-label="門沢橋" x="262" y="381.5" text-anchor="start">門沢橋</text>
<text class="map-label minor-label" data-label="倉見" x="276.5" y="450.5" text-anchor="start">倉見</text>
<text class="map-label minor-label" data-label="宮山" x="291" y="519" text-anchor="start">宮山</text>
<text class="map-label minor-label" data-label="寒川" x="306" y="588" text-anchor="start">寒川</text>
<text class="map-label minor-label" data-label="香川" x="320.5" y="657" text-anchor="start">香川</text>
<text class="map-label minor-label boundary-label" data-label="戸塚" x="850" y="689.5" text-anchor="start">戸塚</text>
<text class="map-label minor-label" data-label="北茅ケ崎" x="335.5" y="725.5" text-anchor="start">北茅ケ崎</text>
<text class="map-label minor-label" data-label="磯子" x="1070" y="794.5" text-anchor="end">磯子</text>
<text class="map-label minor-label" data-label="港南台" x="875" y="763.5" text-anchor="middle">港南台</text>
<text class="map-label minor-label" data-label="新杉田" x="1015" y="763.5" text-anchor="middle">新杉田</text>
<text class="map-label minor-label" data-label="辻堂" x="462.5" y="794.5" text-anchor="start">辻堂</text>
<text class="map-label minor-label" data-label="本郷台" x="805" y="763.5" text-anchor="middle">本郷台</text>
<text class="map-label minor-label" data-label="洋光台" x="945" y="763.5" text-anchor="middle">洋光台</text>
<text class="map-label minor-label boundary-label" data-label="根岸" x="1150" y="794.5" text-anchor="start">根岸</text>
<text class="map-label minor-label boundary-label" data-label="平塚" x="175" y="794.5" text-anchor="start">平塚</text>
<text class="map-label minor-label" data-label="北鎌倉" x="800" y="872" text-anchor="start">北鎌倉</text>
<text class="map-label minor-label" data-label="東逗子" x="1000" y="1104.5" text-anchor="start">東逗子</text>
<text class="map-label minor-label" data-label="田浦" x="1050" y="1159.5" text-anchor="start">田浦</text>
<text class="map-label minor-label" data-label="横須賀" x="1100" y="1214.5" text-anchor="start">横須賀</text>
<text class="map-label minor-label" data-label="衣笠" x="1150" y="1269.5" text-anchor="start">衣笠</text>
<path d="M45 1550 H1300" stroke="#dbe1d8"/><text x="45" y="1575" class="small">路線の交差は乗換ではありません。破線の駅丸＝隣接地域 ／ 地図は模式図</text>
<path d="M45 1598 h24" stroke="#00a7c4" stroke-width="5"/><text x="78" y="1602" class="small">JK 京浜東北・根岸線</text>
<path d="M358.75 1598 h24" stroke="#f68b1e" stroke-width="5"/><text x="391.75" y="1602" class="small">JT 東海道線</text>
<path d="M672.5 1598 h24" stroke="#0067c0" stroke-width="5"/><text x="705.5" y="1602" class="small">JO 横須賀・総武快速線</text>
<path d="M986.25 1598 h24" stroke="#009793" stroke-width="5"/><text x="1019.25" y="1602" class="small">SG 相模線</text>
</svg>
